{
"asset": {
	"generator": "GDX glTF exporter 1.0",
	"version": "2.0"
},
"scenes": [
	{
		"nodes": [ 0 ]
	}
],
"nodes": [
	{
		"name": "tree",
		"mesh": 0
	}
],
"meshes": [
	{
		"primitives": [
			{
				"attributes": {
					"NORMAL": 0,
					"POSITION": 1,
					"COLOR_0": 2
				},
				"indices": 3,
				"material": 0
			}
		]
	}
],
"accessors": [
	{
		"bufferView": 0,
		"componentType": 5126,
		"count": 834,
		"type": "VEC3"
	},
	{
		"bufferView": 1,
		"componentType": 5126,
		"count": 834,
		"type": "VEC3",
		"min": [ -2.93616, 0, -2.8475251 ],
		"max": [ 2.5328023, 18, 3.0509276 ]
	},
	{
		"bufferView": 2,
		"componentType": 5123,
		"count": 834,
		"type": "VEC4"
	},
	{
		"bufferView": 3,
		"componentType": 5123,
		"count": 4902,
		"type": "SCALAR"
	}
],
"materials": [
	{
		"extensions": {
			"KHR_materials_specular": {
				"specularColorFactor": [ 0.023713576, 0.023713576, 0.023713576 ]
			},
			"KHR_materials_ior": {
				"ior": 1.45
			}
		},
		"name": "Material",
		"pbrMetallicRoughness": {
			"metallicFactor": 0,
			"roughnessFactor": 0.95
		}
	}
],
"bufferViews": [
	{
		"byteLength": 10008,
		"buffer": 0
	},
	{
		"byteOffset": 10008,
		"byteLength": 10008,
		"buffer": 0
	},
	{
		"byteOffset": 20016,
		"byteLength": 6672,
		"buffer": 0
	},
	{
		"byteOffset": 26688,
		"byteLength": 9804,
		"buffer": 0
	}
],
"buffers": [
	{
		"uri": "birch_90.bin",
		"byteLength": 36492
	}
],
"extensionsUsed": [
	"KHR_materials_ior",
	"KHR_materials_specular"
]
}