{
"asset": {
	"generator": "GDX glTF exporter 1.0",
	"version": "2.0"
},
"scenes": [
	{
		"nodes": [ 0 ]
	}
],
"nodes": [
	{
		"name": "tree",
		"mesh": 0
	}
],
"meshes": [
	{
		"primitives": [
			{
				"attributes": {
					"NORMAL": 0,
					"POSITION": 1,
					"COLOR_0": 2
				},
				"indices": 3,
				"material": 0
			}
		]
	}
],
"accessors": [
	{
		"bufferView": 0,
		"componentType": 5126,
		"count": 904,
		"type": "VEC3"
	},
	{
		"bufferView": 1,
		"componentType": 5126,
		"count": 904,
		"type": "VEC3",
		"min": [ -2.2241647, 0, -2.2496426 ],
		"max": [ 2.3161793, 19.896557, 2.2779996 ]
	},
	{
		"bufferView": 2,
		"componentType": 5123,
		"count": 904,
		"type": "VEC4"
	},
	{
		"bufferView": 3,
		"componentType": 5123,
		"count": 6108,
		"type": "SCALAR"
	}
],
"materials": [
	{
		"extensions": {
			"KHR_materials_specular": {
				"specularColorFactor": [ 0.023713576, 0.023713576, 0.023713576 ]
			},
			"KHR_materials_ior": {
				"ior": 1.45
			}
		},
		"name": "Material",
		"pbrMetallicRoughness": {
			"metallicFactor": 0,
			"roughnessFactor": 0.95
		}
	}
],
"bufferViews": [
	{
		"byteLength": 10848,
		"buffer": 0
	},
	{
		"byteOffset": 10848,
		"byteLength": 10848,
		"buffer": 0
	},
	{
		"byteOffset": 21696,
		"byteLength": 7232,
		"buffer": 0
	},
	{
		"byteOffset": 28928,
		"byteLength": 12216,
		"buffer": 0
	}
],
"buffers": [
	{
		"uri": "pine_74.bin",
		"byteLength": 41144
	}
],
"extensionsUsed": [
	"KHR_materials_ior",
	"KHR_materials_specular"
]
}