{
    "asset" : {
        "generator" : "Khronos glTF Blender I/O v3.4.50",
        "version" : "2.0"
    },
    "extensionsUsed" : [
        "KHR_materials_specular",
        "KHR_materials_ior"
    ],
    "scene" : 0,
    "scenes" : [
        {
            "name" : "Scene",
            "nodes" : [
                0
            ]
        }
    ],
    "nodes" : [
        {
            "mesh" : 0,
            "name" : "cabin",
            "rotation" : [
                0.5,
                0.5,
                -0.5,
                0.5
            ]
        }
    ],
    "materials" : [
        {
            "doubleSided" : true,
            "extensions" : {
                "KHR_materials_specular" : {
                    "specularColorFactor" : [
                        0.02371357561437425,
                        0.02371357561437425,
                        0.02371357561437425
                    ]
                },
                "KHR_materials_ior" : {
                    "ior" : 1.4500000476837158
                }
            },
            "name" : "Material.001",
            "pbrMetallicRoughness" : {
                "metallicFactor" : 0,
                "roughnessFactor" : 0.949999988079071
            }
        }
    ],
    "meshes" : [
        {
            "name" : "Cylinder.044",
            "primitives" : [
                {
                    "attributes" : {
                        "COLOR_0" : 0,
                        "POSITION" : 1,
                        "NORMAL" : 2
                    },
                    "indices" : 3,
                    "material" : 0
                },
                {
                    "attributes" : {
                        "COLOR_0" : 4,
                        "POSITION" : 5,
                        "NORMAL" : 6
                    },
                    "indices" : 7
                },
                {
                    "attributes" : {
                        "COLOR_0" : 8,
                        "POSITION" : 9,
                        "NORMAL" : 10
                    },
                    "indices" : 11
                },
                {
                    "attributes" : {
                        "COLOR_0" : 12,
                        "POSITION" : 13,
                        "NORMAL" : 14
                    },
                    "indices" : 15
                },
                {
                    "attributes" : {
                        "COLOR_0" : 16,
                        "POSITION" : 17,
                        "NORMAL" : 18
                    },
                    "indices" : 19
                }
            ]
        }
    ],
    "accessors" : [
        {
            "bufferView" : 0,
            "componentType" : 5123,
            "count" : 15966,
            "normalized" : true,
            "type" : "VEC4"
        },
        {
            "bufferView" : 1,
            "componentType" : 5126,
            "count" : 15966,
            "max" : [
                3.655872344970703,
                2.6937692165374756,
                0.17329764366149902
            ],
            "min" : [
                -3.665616035461426,
                -2.8131372928619385,
                -4.913134574890137
            ],
            "type" : "VEC3"
        },
        {
            "bufferView" : 2,
            "componentType" : 5126,
            "count" : 15966,
            "type" : "VEC3"
        },
        {
            "bufferView" : 3,
            "componentType" : 5123,
            "count" : 16062,
            "type" : "SCALAR"
        },
        {
            "bufferView" : 4,
            "componentType" : 5123,
            "count" : 80,
            "normalized" : true,
            "type" : "VEC4"
        },
        {
            "bufferView" : 5,
            "componentType" : 5126,
            "count" : 80,
            "max" : [
                1.8187808990478516,
                -1.8293366432189941,
                -0.14663004875183105
            ],
            "min" : [
                0.7915327548980713,
                -2.170663356781006,
                -1.6086115837097168
            ],
            "type" : "VEC3"
        },
        {
            "bufferView" : 6,
            "componentType" : 5126,
            "count" : 80,
            "type" : "VEC3"
        },
        {
            "bufferView" : 7,
            "componentType" : 5123,
            "count" : 90,
            "type" : "SCALAR"
        },
        {
            "bufferView" : 8,
            "componentType" : 5123,
            "count" : 66,
            "normalized" : true,
            "type" : "VEC4"
        },
        {
            "bufferView" : 9,
            "componentType" : 5126,
            "count" : 66,
            "max" : [
                1.8187808990478516,
                -1.8293366432189941,
                -0.14663004875183105
            ],
            "min" : [
                0.7915329933166504,
                -2.170663356781006,
                -0.44000864028930664
            ],
            "type" : "VEC3"
        },
        {
            "bufferView" : 10,
            "componentType" : 5126,
            "count" : 66,
            "type" : "VEC3"
        },
        {
            "bufferView" : 11,
            "componentType" : 5123,
            "count" : 90,
            "type" : "SCALAR"
        },
        {
            "bufferView" : 12,
            "componentType" : 5123,
            "count" : 34,
            "normalized" : true,
            "type" : "VEC4"
        },
        {
            "bufferView" : 13,
            "componentType" : 5126,
            "count" : 34,
            "max" : [
                -2.5161454677581787,
                0.21308633685112,
                -1.6631906032562256
            ],
            "min" : [
                -2.8360695838928223,
                -0.18691369891166687,
                -1.7904167175292969
            ],
            "type" : "VEC3"
        },
        {
            "bufferView" : 14,
            "componentType" : 5126,
            "count" : 34,
            "type" : "VEC3"
        },
        {
            "bufferView" : 15,
            "componentType" : 5123,
            "count" : 45,
            "type" : "SCALAR"
        },
        {
            "bufferView" : 16,
            "componentType" : 5123,
            "count" : 61,
            "normalized" : true,
            "type" : "VEC4"
        },
        {
            "bufferView" : 17,
            "componentType" : 5126,
            "count" : 61,
            "max" : [
                -2.511518955230713,
                0.2357822060585022,
                -3.6595797538757324
            ],
            "min" : [
                -2.8513810634613037,
                -0.2642177641391754,
                -3.7901599407196045
            ],
            "type" : "VEC3"
        },
        {
            "bufferView" : 18,
            "componentType" : 5126,
            "count" : 61,
            "type" : "VEC3"
        },
        {
            "bufferView" : 19,
            "componentType" : 5123,
            "count" : 81,
            "type" : "SCALAR"
        }
    ],
    "bufferViews" : [
        {
            "buffer" : 0,
            "byteLength" : 127728,
            "byteOffset" : 0,
            "target" : 34962
        },
        {
            "buffer" : 0,
            "byteLength" : 191592,
            "byteOffset" : 127728,
            "target" : 34962
        },
        {
            "buffer" : 0,
            "byteLength" : 191592,
            "byteOffset" : 319320,
            "target" : 34962
        },
        {
            "buffer" : 0,
            "byteLength" : 32124,
            "byteOffset" : 510912,
            "target" : 34963
        },
        {
            "buffer" : 0,
            "byteLength" : 640,
            "byteOffset" : 543036,
            "target" : 34962
        },
        {
            "buffer" : 0,
            "byteLength" : 960,
            "byteOffset" : 543676,
            "target" : 34962
        },
        {
            "buffer" : 0,
            "byteLength" : 960,
            "byteOffset" : 544636,
            "target" : 34962
        },
        {
            "buffer" : 0,
            "byteLength" : 180,
            "byteOffset" : 545596,
            "target" : 34963
        },
        {
            "buffer" : 0,
            "byteLength" : 528,
            "byteOffset" : 545776,
            "target" : 34962
        },
        {
            "buffer" : 0,
            "byteLength" : 792,
            "byteOffset" : 546304,
            "target" : 34962
        },
        {
            "buffer" : 0,
            "byteLength" : 792,
            "byteOffset" : 547096,
            "target" : 34962
        },
        {
            "buffer" : 0,
            "byteLength" : 180,
            "byteOffset" : 547888,
            "target" : 34963
        },
        {
            "buffer" : 0,
            "byteLength" : 272,
            "byteOffset" : 548068,
            "target" : 34962
        },
        {
            "buffer" : 0,
            "byteLength" : 408,
            "byteOffset" : 548340,
            "target" : 34962
        },
        {
            "buffer" : 0,
            "byteLength" : 408,
            "byteOffset" : 548748,
            "target" : 34962
        },
        {
            "buffer" : 0,
            "byteLength" : 90,
            "byteOffset" : 549156,
            "target" : 34963
        },
        {
            "buffer" : 0,
            "byteLength" : 488,
            "byteOffset" : 549248,
            "target" : 34962
        },
        {
            "buffer" : 0,
            "byteLength" : 732,
            "byteOffset" : 549736,
            "target" : 34962
        },
        {
            "buffer" : 0,
            "byteLength" : 732,
            "byteOffset" : 550468,
            "target" : 34962
        },
        {
            "buffer" : 0,
            "byteLength" : 162,
            "byteOffset" : 551200,
            "target" : 34963
        }
    ],
    "buffers" : [
        {
            "byteLength" : 551364,
            "uri" : "data:application/octet-stream;base64,"
        }
    ]
}
